<?xml version="1.0" encoding="UTF-8"?><svg id="Layer_2" xmlns="http://www.w3.org/2000/svg" viewBox="0 0 74 74"><defs><style>.cls-1{fill:#253243;}.cls-2{fill:#5a46ff;}</style></defs><g id="Layer_1-2"><circle class="cls-1" cx="37" cy="37" r="37"/><path class="cls-2" d="m37,57.21c-16.3,0-20.21-3.91-20.21-20.21s3.91-20.21,20.21-20.21,20.21,3.91,20.21,20.21-3.91,20.21-20.21,20.21Zm-5.72-30.42l-6.34,14.41c-.29.7-.54,1.61-.54,2.39,0,3.58,2.51,6.09,6.09,6.09,1.17,0,2.15-.31,3.14-.62h0c1.02-.32,2.07-.65,3.36-.65s2.33.33,3.33.65h0c.98.32,1.95.63,3.17.63,3.58,0,6.09-2.51,6.09-6.09,0-.78-.25-1.69-.54-2.39l-6.34-14.41c-1.07-2.43-3.13-3.75-5.72-3.75s-4.65,1.32-5.72,3.75Zm-.54,16.67l6.26-14.16,6.18,14.16c-1.77-.86-3.99-1.28-6.18-1.28s-4.4.41-6.26,1.28Z"/></g></svg>