<?xml version="1.0" encoding="UTF-8"?><svg id="Layer_2" xmlns="http://www.w3.org/2000/svg" viewBox="0 0 74 74"><defs><style>.cls-1{fill:#fff;}.cls-2{fill:#8555f8;}</style></defs><g id="Layer_1-2"><circle class="cls-1" cx="37" cy="37" r="36.5"/><path class="cls-1" d="m37,1c19.85,0,36,16.15,36,36s-16.15,36-36,36S1,56.85,1,37,17.15,1,37,1m0-1C16.57,0,0,16.57,0,37s16.57,37,37,37,37-16.57,37-37S57.43,0,37,0h0Z"/><path class="cls-2" d="m51.38,40.82c-.2-.04-.39-.11-.57-.18-.15-.07-.29-.16-.41-.28.11-.98,0-1.82.09-2.78.37-3.72,2.71-2.54,4.81-3.15,1.31-.37,2.62-1.12,2.95-2.67-1.41-1.66-3.02-3.14-4.79-4.41-5.7-4.06-13.15-5.68-19.92-4.55,1.04,1.81,2.6,3.25,4.48,4.15,0,0-1.83,0-3.41-1.17-.46.18-1.38.55-1.83.77,3.63,3.49,9.27,3.8,13.26.74-.02.03-.37.57-.79,2.8-.94,4.76-3.65,4.39-7.01,3.19-6.97-2.53-10.81-.19-14.29-4.98-1.01.57-1.64,1.64-1.64,2.8s.66,2.21,1.62,2.77c.52-.7.76-.89,1.67-.89-1.41.8-1.58,1.5-2.19,3.44-.74,2.34-.42,4.74-3.87,5.37-1.83.09-1.79,1.33-2.45,3.17-.83,2.4-1.94,3.36-4.09,5.62.89,1.07,1.81,1.2,2.75.81,1.94-.81,3.43-3.32,4.83-4.94,1.57-1.81,5.33-1.03,8.17-2.8,1.95-1.2,2.91-2.82,1.62-5.57.83.92,1.33,2.09,1.4,3.32,3.28-.43,7.67,3.58,11.67,4.24-.4-.5-.73-1.05-.98-1.64-.46-1.11-.61-2.12-.52-3.01.37,2.19,2.58,5.01,6.14,5.27.9.07,1.9-.04,2.93-.35,1.24-.37,2.38-.85,3.74-.59,1.01.19,1.95.7,2.54,1.57.89,1.29,2.82,1.57,3.69-.02-1.95-5.11-7.34-5.44-9.63-6.03h0Z"/></g></svg>