<?xml version="1.0" encoding="UTF-8"?><svg id="Layer_2" xmlns="http://www.w3.org/2000/svg" viewBox="0 0 74 74"><defs><style>.cls-1{fill:#fff;}.cls-2{fill:#253243;}</style></defs><g id="Layer_1-2"><circle class="cls-2" cx="37" cy="37" r="37"/><path class="cls-1" d="m16.48,27.62h2.94v13.6c-1.51.29-2.61.4-3.81.4-3.59,0-5.46-1.62-5.46-4.73s1.98-4.94,5.05-4.94c.48,0,.84.04,1.28.15,0,0,0-4.48,0-4.48Zm0,6.84c-.34-.11-.63-.15-.99-.15-1.49,0-2.35.92-2.35,2.52s.82,2.42,2.33,2.42c.32,0,.59-.02,1.01-.08v-4.71Z"/><path class="cls-1" d="m24.09,32.15v6.81c0,2.35-.17,3.47-.69,4.44-.48.93-1.11,1.53-2.4,2.17l-2.73-1.3c1.3-.61,1.93-1.14,2.33-1.96.42-.84.55-1.81.55-4.37v-5.8h2.94Zm-2.94-4.52h2.94v3.01h-2.94v-3.01Z"/><path class="cls-1" d="m25.86,32.82c1.3-.61,2.54-.88,3.89-.88,1.51,0,2.5.4,2.94,1.18.25.44.32,1.01.32,2.23v5.97c-1.32.19-2.98.32-4.2.32-2.46,0-3.57-.86-3.57-2.77,0-2.06,1.47-3.01,5.07-3.32v-.65c0-.53-.27-.72-1.01-.72-1.09,0-2.31.31-3.45.9v-2.27h0Zm4.6,4.67c-1.95.19-2.57.5-2.57,1.26,0,.57.36.84,1.16.84.44,0,.84-.04,1.41-.13v-1.96h0Z"/><path class="cls-1" d="m34.44,32.61c1.74-.46,3.17-.67,4.62-.67s2.59.34,3.24,1.01c.61.63.8,1.32.8,2.78v5.76h-2.94v-5.65c0-1.13-.38-1.55-1.43-1.55-.4,0-.76.04-1.35.21v6.98h-2.94v-8.89Z"/><path class="cls-1" d="m44.25,43.1c1.03.53,2.06.78,3.15.78,1.93,0,2.75-.78,2.75-2.65v-.06c-.57.29-1.14.4-1.91.4-2.57,0-4.22-1.7-4.22-4.39,0-3.34,2.42-5.23,6.71-5.23,1.26,0,2.42.13,3.83.42l-1.01,2.12c-.78-.15-.06-.02-.65-.08v.31l.04,1.24.02,1.6c.02.4.02.8.04,1.2v.8c0,2.52-.21,3.7-.84,4.67-.92,1.43-2.5,2.14-4.75,2.14-1.14,0-2.14-.17-3.17-.57v-2.71h0Zm5.84-8.77h-.31c-.57-.02-1.24.13-1.7.42-.71.4-1.07,1.13-1.07,2.16,0,1.47.72,2.31,2.02,2.31.4,0,.72-.08,1.11-.19v-1.01c0-.34-.02-.72-.02-1.13l-.02-1.35-.02-.97v-.23h0Z"/><path class="cls-1" d="m59.12,31.91c2.94,0,4.73,1.85,4.73,4.84s-1.87,5-4.84,5-4.75-1.85-4.75-4.83c0-3.09,1.87-5.02,4.86-5.02Zm-.06,7.48c1.13,0,1.79-.93,1.79-2.56s-.65-2.56-1.77-2.56-1.83.93-1.83,2.56c0,1.62.67,2.56,1.81,2.56Z"/></g></svg>