<?xml version="1.0" encoding="UTF-8"?><svg id="Layer_2" xmlns="http://www.w3.org/2000/svg" viewBox="0 0 74 74"><defs><style>.cls-1{fill:#fff;}.cls-2{fill:#512bd4;}</style></defs><g id="Layer_1-2"><circle class="cls-1" cx="37" cy="37" r="36.5"/><path class="cls-1" d="m37,1c19.85,0,36,16.15,36,36s-16.15,36-36,36S1,56.85,1,37,17.15,1,37,1m0-1C16.57,0,0,16.57,0,37s16.57,37,37,37,37-16.57,37-37S57.43,0,37,0h0Z"/><path class="cls-2" d="m14.78,45.92c-.48,0-.88-.16-1.22-.48-.33-.33-.5-.71-.5-1.16s.17-.85.5-1.18c.33-.33.74-.49,1.22-.49s.9.16,1.23.49c.34.33.51.72.51,1.18s-.17.84-.51,1.16c-.33.32-.74.48-1.23.48Z"/><path class="cls-2" d="m33.89,45.65h-3.11l-8.19-12.91c-.21-.33-.38-.67-.51-1.02h-.07c.06.38.1,1.18.1,2.41v11.52h-2.75v-17.57h3.31l7.91,12.61c.33.52.55.88.65,1.08h.05c-.08-.47-.12-1.25-.12-2.36v-11.32h2.74v17.57Z"/><path class="cls-2" d="m47.27,45.65h-9.62v-17.57h9.24v2.48h-6.39v4.97h5.89v2.46h-5.89v5.2h6.78v2.46Z"/><path class="cls-2" d="m60.94,30.55h-4.92v15.1h-2.84v-15.1h-4.91v-2.48h12.68v2.48Z"/></g></svg>