<?xml version="1.0" encoding="UTF-8"?><svg id="Layer_2" xmlns="http://www.w3.org/2000/svg" viewBox="0 0 74 74"><defs><style>.cls-1{fill:#f2f2f2;}.cls-2{fill:#fff;}.cls-3{fill:#253243;}</style></defs><g id="Layer_1-2"><circle class="cls-3" cx="37" cy="37" r="37"/><path class="cls-2" d="m14.17,39.82c-.37,0-.72-.14-.97-.41-.26-.26-.4-.6-.4-.97,0-.36.14-.71.4-.97.25-.27.6-.42.97-.42.37,0,.72.15.97.42.26.25.41.6.41.97,0,.36-.14.71-.41.97-.25.26-.6.41-.97.41Z"/><path class="cls-2" d="m33.4,39.58h-2.53l-9.07-14.07c-.23-.35-.41-.72-.56-1.1h-.08c.09.8.12,1.61.1,2.42v12.75h-2.06v-17.64h2.68l8.82,13.82c.37.57.61.97.72,1.18h.05c-.1-.86-.14-1.73-.13-2.59v-12.4h2.06v17.64Z"/><path class="cls-2" d="m47.35,39.58h-9.38v-17.64h8.94v1.87h-6.83v5.86h6.37v1.86h-6.37v6.11h7.28v1.94Z"/><path class="cls-2" d="m61.19,23.81h-5.13v15.77h-2.06v-15.77h-5.07v-1.87h12.26v1.87Z"/><path class="cls-1" d="m32.28,51.58c-.7.34-1.47.5-2.24.47-1.04.05-2.05-.36-2.78-1.11-.71-.8-1.09-1.84-1.04-2.9-.05-1.17.37-2.3,1.17-3.15.78-.8,1.86-1.24,2.98-1.2.66-.02,1.32.09,1.94.34v.97c-.59-.33-1.26-.49-1.94-.48-.86-.02-1.69.33-2.27.97-.6.69-.92,1.58-.87,2.5-.05.87.25,1.71.81,2.37.55.59,1.33.91,2.14.88.74.02,1.48-.17,2.12-.54v.9Z"/><path class="cls-1" d="m36.24,52.05c-.78.03-1.53-.29-2.06-.86-.53-.59-.8-1.37-.76-2.16-.05-.84.24-1.66.8-2.28.57-.56,1.36-.86,2.16-.82.76-.04,1.5.25,2.02.8.51.62.77,1.41.73,2.22.04.82-.24,1.61-.78,2.23-.54.58-1.31.9-2.1.88Zm.07-5.29c-.54-.02-1.06.2-1.41.61-.37.48-.56,1.08-.52,1.68-.03.59.15,1.17.52,1.63.36.4.88.62,1.41.6.53.03,1.04-.18,1.38-.58.35-.48.52-1.07.48-1.66.04-.6-.13-1.19-.48-1.67-.34-.41-.85-.63-1.38-.6Z"/><path class="cls-1" d="m43.64,47.05c-.21-.14-.46-.2-.71-.18-.4.01-.76.22-.97.56-.29.46-.43.99-.4,1.53v2.96h-.97v-5.81h.97v1.21h0c.11-.37.32-.71.61-.97.25-.22.58-.34.91-.34.19,0,.37.02.55.08v.96Z"/><path class="cls-1" d="m49.31,49.26h-4.09c-.03.54.15,1.07.49,1.49.36.36.86.55,1.37.52.66,0,1.29-.24,1.8-.65v.87c-.6.39-1.31.59-2.02.55-.73.04-1.44-.25-1.94-.79-.5-.63-.76-1.42-.71-2.23-.03-.81.24-1.59.76-2.21.48-.56,1.19-.87,1.94-.85.67-.04,1.32.23,1.76.74.45.59.67,1.32.62,2.05v.5Zm-.97-.78c.02-.45-.12-.89-.39-1.25-.27-.3-.66-.47-1.06-.45-.42,0-.82.17-1.11.47-.32.34-.52.77-.57,1.23h3.13Z"/></g></svg>