<?xml version="1.0" encoding="UTF-8"?><svg id="Layer_2" xmlns="http://www.w3.org/2000/svg" viewBox="0 0 74 74"><defs><style>.cls-1{fill:#fff;}.cls-2{fill:#253243;}</style></defs><g id="Layer_1-2"><circle class="cls-2" cx="37" cy="37" r="37"/><path class="cls-1" d="m57.1,48.06c-1.46.37-2.37.02-3.18-1.2l-5.77-7.99-.83-1.11-6.74,9.12c-.77,1.1-1.58,1.57-3.02,1.19l8.63-11.59-8.04-10.47c1.38-.27,2.34-.13,3.18,1.11l5.99,8.08,6.03-8.04c.77-1.1,1.6-1.51,2.99-1.11l-3.12,4.13-4.22,5.5c-.5.63-.43,1.06.03,1.66l8.06,10.71Zm-40.19-11.77l.71-3.47c1.92-6.87,9.8-9.73,15.23-5.48,3.17,2.5,3.96,6.03,3.81,9.99h-17.9c-.27,7.12,4.86,11.42,11.4,9.23,2.29-.77,3.64-2.57,4.32-4.81.34-1.13.91-1.3,1.97-.98-.54,2.81-1.76,5.16-4.33,6.62-3.85,2.2-9.34,1.49-12.23-1.57-1.72-1.77-2.43-4.02-2.75-6.42-.05-.4-.15-.78-.23-1.16,0-.65.01-1.3.01-1.95h0Zm1.88-.48h16.17c-.11-5.15-3.31-8.81-7.7-8.84-4.81-.04-8.27,3.53-8.48,8.84Z"/></g></svg>