<?xml version="1.0" encoding="UTF-8"?><svg id="Layer_2" xmlns="http://www.w3.org/2000/svg" viewBox="0 0 74 74"><defs><style>.cls-1{fill:#fff;}.cls-2{fill:#253243;}</style></defs><g id="Layer_1-2"><circle class="cls-2" cx="37" cy="37" r="37"/><path class="cls-1" d="m59.48,25.98l1.51-3.91-.07-.24-14.94,3.94c1.59-2.3,1.05-4.15,1.05-4.15,0,0-4.77,3.05-8.38,2.97-3.61-.08-4.77-1.04-10.3.72-5.53,1.76-7.1,7.18-8.7,8.34-1.6,1.16-6.64,4.95-6.64,4.95v.07s4.55-1.44,4.55-1.44c0,0-1.24,1.17-3.89,4.74,0,0-.05-.04-.12-.11v.03s2.13,3.25,4.21,2.65c.21-.06.45-.16.7-.29.84.47,1.94.93,3.15,1.05,0,0-.82-.95-1.5-2.04.18-.12.37-.24.57-.37l-.09.06,1.73.63-.19-1.62s.01,0,.02-.01l1.7.62-.21-1.48c.22-.11.43-.22.64-.32l1.77-6.69,7.32-4.99-.58,1.46c-1.48,3.65-4.27,4.51-4.27,4.51l-1.16.44c-.86,1.02-1.23,1.27-1.53,4.71.7-.18,1.36-.22,1.97-.05,3.13.84,4.21,4.61,3.37,5.65-.21.26-.71.71-1.35,1.23h-1.27l-.02,1.03s-.09.07-.13.1h-1.29l-.02,1c-.11.09-.23.17-.34.25-1.21.03-2.75-1.03-2.75-1.03,0,.96.8,2.44.8,2.44,0,0,.05-.03.14-.07-.08.06-.12.09-.12.09,0,0,3.25,2.17,5.29,1.36,1.82-.71,6.53-4.42,10.59-6.18l12.3-3.24,1.62-4.2-9.37,2.47v-3.77l10.99-2.9,1.62-4.2-12.61,3.32v-3.77l14.23-3.75Z"/></g></svg>