<?xml version="1.0" encoding="UTF-8"?><svg id="Layer_2" xmlns="http://www.w3.org/2000/svg" viewBox="0 0 74 74"><defs><style>.cls-1{fill:#00acd7;}.cls-2{fill:#fff;}</style></defs><g id="Layer_1-2"><circle class="cls-2" cx="37" cy="37" r="36.5"/><path class="cls-2" d="m37,1c19.85,0,36,16.15,36,36s-16.15,36-36,36S1,56.85,1,37,17.15,1,37,1m0-1C16.57,0,0,16.57,0,37s16.57,37,37,37,37-16.57,37-37S57.43,0,37,0h0Z"/><path class="cls-1" d="m13.31,32.89c-.11,0-.14-.05-.08-.14l.57-.73c.05-.08.19-.14.3-.14h9.7c.11,0,.14.08.08.16l-.46.71c-.05.08-.19.16-.27.16l-9.83-.03Z"/><path class="cls-1" d="m9.21,35.39c-.11,0-.14-.05-.08-.14l.57-.73c.05-.08.19-.14.3-.14h12.39c.11,0,.16.08.14.16l-.22.65c-.03.11-.14.16-.24.16l-12.85.03Z"/><path class="cls-1" d="m15.79,37.89c-.11,0-.14-.08-.08-.16l.38-.68c.05-.08.16-.16.27-.16h5.43c.11,0,.16.08.16.19l-.05.65c0,.11-.11.19-.19.19l-5.92-.03Z"/><g id="CXHf1q"><path class="cls-1" d="m43.98,32.4c-1.71.43-2.88.76-4.56,1.2-.41.11-.43.14-.79-.27-.41-.46-.71-.76-1.28-1.03-1.71-.84-3.37-.6-4.92.41-1.85,1.2-2.8,2.96-2.77,5.16.03,2.17,1.52,3.97,3.67,4.26,1.85.24,3.4-.41,4.62-1.79.24-.3.46-.62.73-1.01h-5.24c-.57,0-.71-.35-.52-.81.35-.84,1.01-2.25,1.39-2.96.08-.16.27-.43.68-.43h9.89c-.05.73-.05,1.47-.16,2.2-.3,1.96-1.03,3.75-2.23,5.32-1.96,2.58-4.51,4.18-7.74,4.62-2.66.35-5.13-.16-7.31-1.79-2.01-1.52-3.15-3.53-3.45-6.03-.35-2.96.52-5.62,2.31-7.96,1.93-2.53,4.48-4.13,7.61-4.7,2.55-.46,5-.16,7.2,1.33,1.44.95,2.47,2.25,3.15,3.83.16.24.05.38-.27.46Z"/><path class="cls-1" d="m52.97,47.42c-2.47-.05-4.73-.76-6.63-2.39-1.6-1.39-2.61-3.15-2.93-5.24-.49-3.07.35-5.79,2.2-8.2,1.98-2.61,4.37-3.97,7.61-4.54,2.77-.49,5.38-.22,7.74,1.39,2.15,1.47,3.48,3.45,3.83,6.06.46,3.67-.6,6.66-3.12,9.21-1.79,1.82-3.99,2.96-6.52,3.48-.73.14-1.47.16-2.17.24Zm6.47-10.97c-.03-.35-.03-.62-.08-.9-.49-2.69-2.96-4.21-5.54-3.61-2.53.57-4.16,2.17-4.75,4.73-.49,2.12.54,4.26,2.5,5.13,1.49.65,2.99.57,4.43-.16,2.15-1.11,3.31-2.85,3.45-5.19Z"/></g></g></svg>