<?xml version="1.0" encoding="UTF-8"?><svg id="Layer_2" xmlns="http://www.w3.org/2000/svg" viewBox="0 0 74 74"><defs><style>.cls-1{fill:#fff;}.cls-2{fill:#e76f00;}.cls-3{fill:#5382a1;}</style></defs><g id="Layer_1-2"><circle class="cls-1" cx="37" cy="37" r="36.5"/><path class="cls-1" d="m37,1c19.85,0,36,16.15,36,36s-16.15,36-36,36S1,56.85,1,37,17.15,1,37,1m0-1C16.57,0,0,16.57,0,37s16.57,37,37,37,37-16.57,37-37S57.43,0,37,0h0Z"/><path class="cls-3" d="m30.52,50.5s-1.89,1.1,1.34,1.47c3.91.45,5.91.38,10.22-.43,0,0,1.13.71,2.72,1.33-9.67,4.14-21.87-.24-14.28-2.36"/><path class="cls-3" d="m29.34,45.09s-2.12,1.57,1.12,1.9c4.18.43,7.48.47,13.19-.63,0,0,.79.8,2.03,1.24-11.69,3.42-24.7.27-16.34-2.51"/><path class="cls-2" d="m39.3,35.92c2.38,2.74-.63,5.21-.63,5.21,0,0,6.05-3.12,3.27-7.03-2.59-3.65-4.58-5.46,6.19-11.7,0,0-16.9,4.22-8.83,13.52"/><path class="cls-3" d="m52.08,54.49s1.4,1.15-1.54,2.04c-5.58,1.69-23.22,2.2-28.12.07-1.76-.77,1.54-1.83,2.58-2.05,1.08-.24,1.7-.19,1.7-.19-1.96-1.38-12.66,2.71-5.44,3.88,19.71,3.2,35.92-1.44,30.81-3.74"/><path class="cls-3" d="m31.43,39.49s-8.97,2.13-3.18,2.91c2.45.33,7.33.25,11.87-.13,3.71-.31,7.44-.98,7.44-.98,0,0-1.31.56-2.26,1.21-9.11,2.4-26.71,1.28-21.65-1.17,4.29-2.07,7.77-1.84,7.77-1.84"/><path class="cls-3" d="m47.52,48.49c9.26-4.81,4.98-9.44,1.99-8.82-.73.15-1.06.28-1.06.28,0,0,.27-.43.79-.61,5.91-2.08,10.46,6.13-1.91,9.38,0,0,.14-.13.19-.24"/><path class="cls-2" d="m41.94,12.31s5.13,5.13-4.87,13.02c-8.02,6.33-1.83,9.94,0,14.06-4.68-4.22-8.11-7.94-5.81-11.4,3.38-5.08,12.75-7.54,10.68-15.69"/><path class="cls-3" d="m32.34,61.53c8.89.57,22.54-.32,22.87-4.52,0,0-.62,1.59-7.35,2.86-7.59,1.43-16.95,1.26-22.5.35,0,0,1.14.94,6.98,1.32"/></g></svg>