<?xml version="1.0" encoding="UTF-8"?><svg id="Layer_2" xmlns="http://www.w3.org/2000/svg" viewBox="0 0 74 74"><defs><style>.cls-1{fill:#fff;}.cls-2{fill:#253243;}</style></defs><g id="Layer_1-2"><circle class="cls-2" cx="37" cy="37" r="37"/><path class="cls-1" d="m17.04,25.16v15.64l6.91-7.79h.31l-5.12,5.78,6.75,9.92h-2.2l-5.81-8.55-.85.98v7.58h-2.19v-23.55h2.2Zm18.04,23.68c-2.21,0-4.01-.63-5.39-1.88-1.38-1.26-2.07-3.19-2.08-5.81,0-2.62.72-4.65,2.15-6.09,1.43-1.44,3.26-2.17,5.47-2.18,2.21,0,4.01.63,5.39,1.89,1.38,1.26,2.07,3.19,2.07,5.81,0,2.62-.72,4.65-2.15,6.1-1.43,1.44-3.26,2.17-5.47,2.17h0Zm.2-15.71c-1.59,0-2.91.71-3.96,2.12-1.05,1.41-1.57,3.38-1.57,5.91,0,2.52.48,4.39,1.44,5.61.96,1.21,2.24,1.82,3.83,1.82s2.91-.71,3.96-2.12c1.05-1.41,1.57-3.38,1.57-5.9s-.48-4.39-1.44-5.61c-.96-1.21-2.24-1.82-3.83-1.82h0Zm22.9,15.58c-1.42,0-2.4-.27-2.92-.82-.48-.46-.72-.86-.72-1.2v-.66c-1.03,1.86-2.67,2.8-4.93,2.8-2.64,0-4.14-1.19-4.49-3.58-.04-.25-.06-.51-.06-.77,0-.29.05-.58.13-.86.08-.31.32-.66.72-1.04.8-.75,2.55-1.22,5.26-1.38.67-.06,1.29-.09,1.85-.09s1.08.02,1.54.06v-5.2s-.04-.12,0-.3c.03-.24,0-.48-.11-.69-.12-.29-.27-.57-.45-.83-.19-.27-.52-.51-1-.71-.6-.22-1.24-.32-1.88-.3-.93.02-1.84.17-2.73.43-1.03.28-1.79.56-2.28.83l-.13-.22c1.78-.84,3.72-1.28,5.69-1.29,2.16,0,3.58.39,4.27,1.16.54.61.82,1.25.82,1.92v10.52c0,.61.12,1.07.36,1.4.24.32.49.5.74.52l.35.06h.98v.25h-.98Zm-8.07-.13c1.11,0,2.18-.41,3-1.15.89-.76,1.37-1.5,1.43-2.21v-3.8c-.57-.05-1.14-.07-1.71-.07-.57,0-1.14.03-1.71.09-1.59.19-2.63.55-3.11,1.07s-.72,1.24-.72,2.17c0,.19.01.38.03.57.19,2.22,1.12,3.33,2.79,3.33h0Z"/></g></svg>