<?xml version="1.0" encoding="UTF-8"?><svg id="Layer_2" xmlns="http://www.w3.org/2000/svg" viewBox="0 0 74 74"><defs><style>.cls-1{fill:#e54537;}.cls-2{fill:#fff;}</style></defs><g id="Layer_1-2"><circle class="cls-2" cx="37" cy="37" r="36.5"/><path class="cls-2" d="m37,1c19.85,0,36,16.15,36,36s-16.15,36-36,36S1,56.85,1,37,17.15,1,37,1m0-1C16.57,0,0,16.57,0,37s16.57,37,37,37,37-16.57,37-37S57.43,0,37,0h0Z"/><path class="cls-1" d="m27.68,27.54c.18,0,.36-.04.53-.12l18.65-8.67c.62-.29.9-1.03.61-1.66-.29-.62-1.03-.9-1.66-.61l-18.65,8.67c-.62.29-.9,1.03-.61,1.66.21.45.66.72,1.13.72Zm18.12-5.75l-18.65,8.67c-.62.29-.9,1.03-.61,1.66.21.45.66.72,1.13.72.18,0,.35-.04.53-.12l18.65-8.67c.62-.29.9-1.03.61-1.66-.29-.62-1.03-.9-1.66-.61Zm0,5.35l-18.65,8.67c-.62.29-.9,1.03-.61,1.66.21.45.66.72,1.13.72.18,0,.35-.04.53-.12l18.65-8.67c.62-.29.9-1.03.61-1.66-.29-.62-1.03-.9-1.66-.61Zm-18.12-4.88c.18,0,.36-.04.53-.12l8.6-4.01c.62-.29.89-1.03.6-1.66-.29-.62-1.03-.89-1.66-.6l-8.6,4.01c-.62.29-.89,1.03-.6,1.66.21.45.66.72,1.13.72Zm18.12,10.19l-6.59,3.1c-.44.21-.72.65-.72,1.13v6.23h-2.88v-4.65c0-.69-.56-1.25-1.25-1.25s-1.25.56-1.25,1.25v4.65h-1.79c-.53,0-.93.48-.84,1l.42,2.34c.07.41.43.7.84.7h4.38l-4.64.84c-.34.06-.56.39-.5.72.05.3.32.51.61.51.04,0,.07,0,.11-.01l10.63-1.93c.17-.03.3-.12.39-.25.22-.12.38-.34.42-.61l.36-2.34c.08-.52-.32-.98-.84-.98h-1.69v-5.43l5.88-2.76c.62-.29.89-1.04.6-1.66-.29-.62-1.04-.89-1.66-.6Zm-3.68,16.58l-10.63,1.93c-.34.06-.56.39-.5.72.05.3.32.51.61.51.04,0,.07,0,.11-.01l10.63-1.93c.34-.06.56-.39.5-.72-.06-.34-.39-.56-.72-.5Zm0,3.3l-10.63,1.93c-.34.06-.56.39-.5.72.05.3.32.51.61.51.04,0,.07,0,.11-.01l10.63-1.93c.34-.06.56-.39.5-.72-.06-.34-.39-.56-.72-.5Zm-1.27,3.33l-7.93,1.37c-.34.06-.57.38-.51.72.05.3.32.52.61.52.04,0,.07,0,.11,0l7.93-1.37c.34-.06.57-.38.51-.72-.06-.34-.38-.57-.72-.51Z"/></g></svg>