<?xml version="1.0" encoding="UTF-8"?><svg id="Layer_2" xmlns="http://www.w3.org/2000/svg" viewBox="0 0 74 74"><defs><style>.cls-1{fill:#253243;}.cls-2{fill:#ea2845;fill-rule:evenodd;}</style></defs><g id="Layer_1-2"><circle class="cls-1" cx="37" cy="37" r="37"/><path class="cls-2" d="m40.7,16.24c-.3,0-.58.06-.84.15.55.37.85.85,1,1.4,0,.07.03.13.04.2s.02.13.02.2c.04.95-.25,1.07-.45,1.63-.31.72-.23,1.5.15,2.12.03.08.08.16.13.24-.41-2.72,1.86-3.14,2.28-3.99.03-.74-.58-1.24-1.07-1.58-.46-.28-.89-.37-1.27-.37h0Zm3.42.62c-.04.25,0,.18-.02.31l-.02.28-.07.26c-.02.09-.05.17-.09.26l-.12.25s-.05.09-.09.13l-.06.1-.16.21c-.06.06-.12.14-.2.2s-.13.13-.2.18c-.23.17-.49.3-.72.46-.07.05-.15.1-.21.16-.07.05-.14.11-.2.17-.07.06-.13.13-.2.2s-.12.14-.16.21l-.15.23-.12.25-.09.25-.07.27s0,.1-.02.14,0,.09-.02.13v.27c0,.06,0,.13,0,.2,0,.09,0,.17.03.27s.03.17.05.26l.09.26c.02.05.05.11.07.15l-2.48-.96-1.25-.32-.68-.16c-.65-.13-1.3-.23-1.96-.29-.02,0-.03,0-.05,0l-1.93-.1-1.41.05c-.66.04-1.32.13-1.97.24l-.49.09-.97.21-.49.13-.46.2-.35.16s-.04,0-.05.02l-.3.15s-.05.02-.07.03l-.33.17c-.07.03-.15.07-.21.11-.03.02-.07.04-.1.05l-.28.16c-.09.05-.18.1-.26.16l-.21.15-.24.17-.18.15s-.04.03-.06.04l-.16.14s-.03.03-.04.04l-.2.18-.21.2-.18.2s-.05.04-.07.06c-.06.07-.12.13-.18.19,0,.02-.03.03-.04.05l-.25.26-.58.56c-.2.17-.4.33-.6.47l-.65.41c-.21.12-.44.23-.68.32-.23.1-.46.18-.7.26-.45.1-.92.28-1.32.31-.09,0-.18.02-.27.03l-.27.06-.26.1c-.09.03-.17.07-.26.12-.07.05-.16.1-.24.15s-.15.12-.21.18-.15.13-.21.2l-.18.21c-.05.09-.12.16-.16.25-.06.08-.11.16-.15.25l-.12.28-.1.28-.05.26c-.03.13-.03.26-.04.32s0,.14,0,.22c0,.05,0,.09,0,.14,0,.07.02.14.04.2l.07.2c.03.07.07.14.12.2l.14.2.18.17c.06.06.13.12.2.17.26.23.32.3.66.47.05.03.11.05.17.09.03.03.03.04.04.06,0,.09.03.17.05.26.02.09.05.18.09.26l.09.2s.02.04.03.05l.13.24.16.23.18.2c.06.06.13.12.2.18l.21.16c.07.05.15.1.24.14.08.05.16.09.25.12.06.03.14.05.21.07s.14.04.18.05c-.03.58-.04,1.13.04,1.33.1.21.57-.44,1.04-1.19-.06.74-.11,1.62,0,1.87s.76-.57,1.33-1.5c7.64-1.77,14.61,3.51,15.34,10.97-.14-1.16-1.57-1.81-2.23-1.65-.32.8-.87,1.82-1.76,2.46.07-.71.04-1.44-.11-2.16-.24.99-.7,1.92-1.34,2.71-1.02.07-2.04-.42-2.59-1.16-.04-.03-.05-.1-.09-.14l-.09-.23c-.03-.07-.05-.15-.06-.23s0-.15,0-.24v-.16c0-.07.03-.15.05-.23l.07-.23c.04-.07.07-.15.13-.23.18-.49.18-.94-.15-1.18-.06-.04-.13-.07-.2-.11-.04,0-.1-.03-.14-.04l-.09-.03-.23-.05c-.07-.02-.15-.03-.23-.03-.08-.01-.16-.02-.24-.02-.05,0-.11,0-.16,0-.08,0-.16.01-.24.03l-.23.04-.23.07-.21.1-.2.11c-2.51,1.64-1.01,5.47.7,6.58-.65.12-1.31.26-1.49.4.44.3.93.54,1.43.74l1.74.49c.89.2,1.8.26,2.71.2,4.79-.35,8.7-3.99,9.39-8.75l.06.28.1.6.04.29.02.32.02.35v.17c0,.05,0,.12,0,.17s0,.13,0,.2v.15c0,.07,0,.14,0,.21,0,.04,0,.09,0,.14v.24s-.02.06-.02.1l-.03.25s0,.06,0,.1l-.04.31v.02l-.06.3-.06.32-.09.33-.09.33-.11.34-.24.63-.13.31-.15.3s-.02.05-.03.07c-.72,1.44-1.76,2.68-3.05,3.65-.09.05-.17.12-.26.18-.02.02-.05.03-.07.05l-.24.16.03.06h0l.45-.06h0l.84-.15c.07,0,.16-.03.24-.05l.15-.03.23-.04.2-.05c1.08-.26,2.12-.62,3.12-1.03-1.71,2.34-4.01,4.22-6.69,5.46,1.24-.09,2.48-.29,3.67-.64,4.34-1.28,7.99-4.2,10.18-8.13-.44,2.49-1.43,4.86-2.9,6.93,1.04-.69,2-1.49,2.88-2.39,2.41-2.52,3.99-5.71,4.53-9.16.37,1.7.47,3.46.31,5.19,7.78-10.85.65-22.09-2.34-25.06,0-.02-.02-.03-.02-.05-.02.13-.03.26-.04.39-.03.25-.06.49-.11.72s-.12.47-.18.71-.16.46-.26.69-.2.44-.32.66c-.12.21-.25.42-.39.61-.14.2-.29.4-.44.58-.16.19-.33.37-.51.54-.11.1-.2.18-.31.27l-.25.21c-.19.15-.39.29-.6.42-.21.13-.42.26-.64.37-.23.11-.45.2-.68.3-.23.09-.46.16-.7.23-.24.06-.49.12-.72.16s-.49.06-.73.09c-.17,0-.34.02-.49.02-.25,0-.49-.02-.73-.04s-.49-.05-.73-.11c-.24-.04-.49-.11-.72-.18h0c.24-.02.47-.04.71-.09s.49-.1.72-.16.47-.14.7-.23.46-.2.68-.3c.22-.11.44-.23.65-.35.2-.14.41-.28.6-.43.19-.15.38-.31.55-.49.18-.16.34-.34.51-.53s.31-.39.45-.58c.02-.03.04-.07.06-.11l.31-.49c.12-.21.23-.43.32-.66s.18-.45.26-.69.13-.46.18-.7.09-.49.11-.72.04-.49.04-.73c0-.17,0-.34-.02-.49-.02-.25-.05-.49-.09-.72-.04-.24-.1-.48-.16-.72-.07-.23-.15-.46-.24-.69s-.2-.45-.3-.67-.24-.43-.37-.64-.28-.4-.43-.59l-.49-.55c-.09-.09-.18-.18-.28-.27-.48-.38-.98-.73-1.5-1.06-.07-.04-.14-.07-.21-.11-.35-.23-.69-.34-1.02-.45l-.04-.04Z"/></g></svg>