<?xml version="1.0" encoding="UTF-8"?><svg id="Layer_2" xmlns="http://www.w3.org/2000/svg" viewBox="0 0 74 74"><defs><style>.cls-1{fill:#fff;}</style></defs><g id="Layer_1-2"><circle class="cls-1" cx="37" cy="37" r="36.5"/><path class="cls-1" d="m37,1c19.85,0,36,16.15,36,36s-16.15,36-36,36S1,56.85,1,37,17.15,1,37,1m0-1C16.57,0,0,16.57,0,37s16.57,37,37,37,37-16.57,37-37S57.43,0,37,0h0Z"/><path d="m35.54,14.79c-.1,0-.4.04-.67.06-6.31.57-12.23,3.97-15.97,9.21-2.09,2.91-3.42,6.21-3.92,9.71-.18,1.22-.2,1.58-.2,3.24s.02,2.02.2,3.24c1.21,8.35,7.15,15.36,15.2,17.95,1.44.46,2.96.78,4.69.97.67.07,3.58.07,4.26,0,2.98-.33,5.51-1.07,8.01-2.34.38-.2.46-.25.4-.29-.03-.03-1.66-2.21-3.62-4.85l-3.55-4.8-4.45-6.59c-2.45-3.62-4.47-6.59-4.48-6.59-.02,0-.03,2.92-.04,6.5-.01,6.26-.02,6.51-.1,6.66-.11.21-.2.3-.38.4-.14.07-.26.08-.92.08h-.75l-.2-.13c-.13-.08-.23-.19-.29-.32l-.09-.2v-8.71s.02-8.71.02-8.71l.13-.17c.07-.09.22-.21.32-.26.18-.09.25-.1,1-.1.89,0,1.03.03,1.26.29.07.07,2.48,3.7,5.36,8.08,2.88,4.37,6.83,10.35,8.77,13.28l3.52,5.33.18-.12c1.58-1.03,3.25-2.48,4.57-4.01,2.81-3.23,4.62-7.16,5.23-11.36.18-1.22.2-1.58.2-3.24s-.02-2.02-.2-3.24c-1.21-8.35-7.15-15.36-15.2-17.95-1.42-.46-2.93-.78-4.63-.97-.42-.04-3.29-.09-3.65-.06h0Zm9.1,13.44c.21.1.38.3.44.51.03.11.04,2.53.03,7.97v7.81s-1.39-2.11-1.39-2.11l-1.38-2.11v-5.68c0-3.67.02-5.73.04-5.83.07-.24.22-.43.43-.55.18-.09.24-.1.93-.1.64,0,.76,0,.9.09Z"/></g></svg>