<?xml version="1.0" encoding="UTF-8"?><svg id="Layer_2" xmlns="http://www.w3.org/2000/svg" viewBox="0 0 74 74"><defs><style>.cls-1{fill:#253243;}.cls-2{fill:#539e43;}</style></defs><g id="Layer_1-2"><circle class="cls-1" cx="37" cy="37" r="37"/><path class="cls-2" d="m37,59.72c-.63,0-1.21-.17-1.75-.46l-5.55-3.3c-.83-.46-.42-.63-.17-.71,1.13-.38,1.34-.46,2.5-1.13.13-.08.29-.04.42.04l4.26,2.55c.17.08.38.08.5,0l16.66-9.64c.17-.08.25-.25.25-.46v-19.25c0-.21-.08-.38-.25-.46l-16.66-9.6c-.17-.08-.38-.08-.5,0l-16.66,9.6c-.17.08-.25.29-.25.46v19.25c0,.17.08.38.25.46l4.55,2.63c2.46,1.25,4.01-.21,4.01-1.67v-19c0-.25.21-.5.5-.5h2.13c.25,0,.5.21.5.5v19c0,3.3-1.8,5.22-4.93,5.22-.96,0-1.71,0-3.84-1.04l-4.38-2.5c-1.09-.63-1.75-1.8-1.75-3.05v-19.25c0-1.25.67-2.42,1.75-3.05l16.66-9.64c1.04-.58,2.46-.58,3.51,0l16.66,9.64c1.09.63,1.75,1.8,1.75,3.05v19.25c0,1.25-.67,2.42-1.75,3.05l-16.66,9.64c-.54.25-1.17.38-1.75.38h0Zm5.13-13.23c-7.31,0-8.81-3.34-8.81-6.18,0-.25.21-.5.5-.5h2.17c.25,0,.46.17.46.42.33,2.21,1.29,3.3,5.72,3.3,3.51,0,5.01-.79,5.01-2.67,0-1.09-.42-1.88-5.89-2.42-4.55-.46-7.39-1.46-7.39-5.09,0-3.38,2.84-5.39,7.6-5.39,5.34,0,7.97,1.84,8.31,5.84,0,.13-.04.25-.13.38-.08.08-.21.17-.33.17h-2.17c-.21,0-.42-.17-.46-.38-.5-2.3-1.8-3.05-5.22-3.05-3.84,0-4.3,1.34-4.3,2.34,0,1.21.54,1.59,5.72,2.25,5.13.67,7.56,1.63,7.56,5.22-.04,3.67-3.05,5.76-8.35,5.76h0Z"/></g></svg>