<?xml version="1.0" encoding="UTF-8"?><svg id="Layer_2" xmlns="http://www.w3.org/2000/svg" viewBox="0 0 74 74"><defs><style>.cls-1{fill:#fff;}.cls-2{fill:#253243;}.cls-3{fill:#6884ba;}.cls-3,.cls-4{fill-rule:evenodd;}</style></defs><g id="Layer_1-2"><circle class="cls-2" cx="37" cy="37" r="37"/><ellipse class="cls-1" cx="36.65" cy="37.39" rx="25.5" ry="11.5"/><path class="cls-3" d="m37,50.67c14.9,0,26.99-6.12,26.99-13.68s-12.08-13.67-26.99-13.67-26.99,6.12-26.99,13.68,12.08,13.67,26.99,13.67h0Zm14.25-16.37c-.21-.23-.75-.34-1.64-.34h-1.34l-.79,4.04h.77c.54,0,1-.05,1.38-.14.33-.08.6-.2.8-.36.2-.15.36-.36.51-.63.16-.3.29-.68.37-1.13.08-.42.11-.77.07-1.05-.02-.18-.07-.31-.14-.38h0Zm-17.27-7.96h2.99c.48,0,.88.4.88.88,0,.07,0,.15-.03.22l-.5,2.58h1.6c.91,0,1.69.08,2.34.25.72.18,1.3.47,1.73.87.37.34.64.76.79,1.26l.31-1.61c.06-.43.43-.76.87-.76h5.8c.97,0,1.82.13,2.56.4.78.28,1.42.71,1.92,1.28.51.58.83,1.26.98,2.06.14.75.12,1.59-.06,2.51-.07.37-.18.74-.3,1.1-.13.36-.28.69-.46,1.01-.18.33-.39.64-.62.92-.23.29-.49.57-.78.83h0c-.35.33-.71.6-1.09.83-.4.24-.8.42-1.23.56-.41.14-.89.24-1.41.3-.52.07-1.08.1-1.67.1h-1.86l-.58,2.92c-.06.43-.43.76-.87.76h-3.01c-.05,0-.11,0-.17-.02-.47-.09-.79-.55-.7-1.03l.52-2.67c-.07.02-.14.03-.22.03h-3.04c-.48,0-.88-.4-.88-.88,0-.07,0-.15.03-.22l1.18-6.07c.05-.27.07-.47.05-.62,0-.04.03-.02.02-.04l-.12-.03c-.18-.04-.42-.07-.74-.07h-1.67l-1.39,7.22c-.08.42-.45.71-.86.71h-2.99c-.48,0-.88-.4-.88-.88,0-.07,0-.15.03-.22l.16-.82-.13.12h0c-.35.33-.71.6-1.09.83-.4.24-.8.42-1.23.56-.41.14-.89.24-1.41.3-.52.07-1.08.1-1.67.1h-1.86l-.57,2.92c-.06.43-.43.76-.87.76h-3.01c-.05,0-.11,0-.17-.02-.47-.09-.79-.55-.7-1.03l2.68-13.79c.06-.43.43-.76.87-.76h5.8c.97,0,1.82.13,2.56.4.78.28,1.42.71,1.92,1.28.15.17.29.36.41.55l1.01-5.19c.08-.42.45-.72.86-.72h0Zm-6.25,7.96c-.21-.23-.75-.34-1.64-.34h-1.34l-.79,4.04h.77c.54,0,1-.05,1.38-.14.33-.08.6-.2.8-.36.2-.15.36-.36.51-.63.16-.3.29-.68.37-1.13.08-.42.11-.77.07-1.05-.02-.18-.07-.31-.13-.38h0Z"/><path class="cls-4" d="m49.61,33.08c1.15,0,1.91.21,2.29.63.38.42.47,1.15.27,2.18-.21,1.07-.61,1.84-1.2,2.29s-1.5.69-2.71.69h-1.83l1.12-5.79h2.06Zm-15.63-5.86h2.99l-.72,3.68h2.67c1.68,0,2.83.29,3.47.88.64.58.83,1.53.57,2.84l-1.25,6.44h-3.04l1.19-6.12c.14-.7.08-1.17-.15-1.42-.24-.25-.73-.38-1.5-.38h-2.39l-1.54,7.93h-2.99l2.69-13.84h0Zm-7.89,5.86c1.15,0,1.91.21,2.29.63.38.42.47,1.15.27,2.18-.21,1.07-.61,1.84-1.2,2.29-.59.46-1.5.69-2.71.69h-1.83l1.12-5.79h2.06Zm-7.34,11.65h3.01l.72-3.68h2.58c1.14,0,2.08-.12,2.81-.36.74-.24,1.41-.64,2.01-1.2.51-.47.91-.98,1.23-1.54.31-.56.54-1.18.67-1.85.32-1.64.08-2.92-.72-3.83-.8-.91-2.07-1.37-3.82-1.37h-5.8l-2.69,13.84h0Zm23.52,0h3.01l.72-3.68h2.58c1.14,0,2.08-.12,2.81-.36.74-.24,1.41-.64,2.01-1.2.51-.47.91-.98,1.23-1.54.31-.56.54-1.18.67-1.85.32-1.64.08-2.92-.72-3.83-.8-.91-2.07-1.37-3.82-1.37h-5.8l-2.69,13.84h0Z"/></g></svg>