<?xml version="1.0" encoding="UTF-8"?><svg id="Layer_2" xmlns="http://www.w3.org/2000/svg" xmlns:xlink="http://www.w3.org/1999/xlink" viewBox="0 0 74 74"><defs><style>.cls-1{fill:url(#linear-gradient);}.cls-2{fill:#253243;}.cls-3{fill:url(#linear-gradient-2);}.cls-4{fill:url(#radial-gradient);isolation:isolate;opacity:.44;}</style><linearGradient id="linear-gradient" x1="525.77" y1="2797.26" x2="567.07" y2="2761.73" gradientTransform="translate(-280.85 1601.47) scale(.56 -.57)" gradientUnits="userSpaceOnUse"><stop offset="0" stop-color="#5a9fd4"/><stop offset="1" stop-color="#306998"/></linearGradient><linearGradient id="linear-gradient-2" x1="583.03" y1="2740.23" x2="568.28" y2="2761.09" gradientTransform="translate(-280.85 1601.47) scale(.56 -.57)" gradientUnits="userSpaceOnUse"><stop offset="0" stop-color="#ffd43b"/><stop offset="1" stop-color="#ffe873"/></linearGradient><radialGradient id="radial-gradient" cx="2864.81" cy="827.86" fx="2864.81" fy="827.86" r="11" gradientTransform="translate(910.21 747.27) rotate(-90) scale(.24 -1.05)" gradientUnits="userSpaceOnUse"><stop offset="0" stop-color="#b8b8b8" stop-opacity=".5"/><stop offset="1" stop-color="#7f7f7f" stop-opacity="0"/></radialGradient></defs><g id="Layer_1-2"><circle class="cls-2" cx="37" cy="37" r="37"/><path id="path1948" class="cls-1" d="m36.75,11.5c-1.74,0-3.39.16-4.85.41-4.3.76-5.08,2.35-5.08,5.28v3.87h10.16v1.29h-13.97c-2.95,0-5.54,1.77-6.34,5.15-.93,3.87-.97,6.28,0,10.32.72,3.01,2.45,5.15,5.4,5.15h3.49v-4.64c0-3.35,2.9-6.31,6.34-6.31h10.14c2.82,0,5.08-2.33,5.08-5.16v-9.67c0-2.75-2.32-4.82-5.08-5.28-1.74-.29-3.55-.42-5.29-.41Zm-5.49,3.11c1.05,0,1.91.87,1.91,1.94,0,1.07-.86,1.93-1.91,1.93-1.05,0-1.91-.86-1.91-1.93s.85-1.94,1.91-1.94Z"/><path id="path1950" class="cls-3" d="m48.39,22.35v4.51c0,3.5-2.96,6.44-6.34,6.44h-10.14c-2.78,0-5.08,2.38-5.08,5.16v9.67c0,2.75,2.39,4.37,5.08,5.16,3.21.95,6.3,1.12,10.14,0,2.56-.74,5.08-2.23,5.08-5.16v-3.87h-10.14v-1.29h15.22c2.95,0,4.05-2.06,5.08-5.15,1.06-3.18,1.02-6.24,0-10.32-.73-2.94-2.12-5.15-5.08-5.15h-3.81Zm-5.71,24.49c1.05,0,1.91.86,1.91,1.93s-.85,1.94-1.91,1.94-1.91-.87-1.91-1.94.86-1.93,1.91-1.93Z"/><ellipse id="path1894" class="cls-4" cx="37.09" cy="59.87" rx="13.61" ry="2.64"/></g></svg>