<?xml version="1.0" encoding="UTF-8"?><svg id="Layer_2" xmlns="http://www.w3.org/2000/svg" viewBox="0 0 74 74"><defs><style>.cls-1{fill:#c00;}.cls-2{fill:#253243;}</style></defs><g id="Layer_1-2"><circle class="cls-2" cx="37" cy="37" r="37"/><path class="cls-1" d="m32.85,43.91s2.57-.22,2.57-3.53-3.11-3.62-3.11-3.62h-5.6v10.45h2.81v-2.52l2.43,2.52h4.16l-3.27-3.3Zm-1.08-2.14h-2.24v-2.39h2.26s.63.23.63,1.19-.64,1.2-.64,1.2Zm10.6-4.94h-2.86c-2.04,0-2.73,1.85-2.73,2.73v7.65h2.86v-1.83h2.68v1.83h2.77v-7.65c0-2.23-2.02-2.73-2.73-2.73Zm-.04,5.58h-2.7v-2.54s0-.57.89-.57h.98c.79,0,.81.57.81.57v2.54h.01Zm4.07-5.58h2.98v10.38h-2.98v-10.38Zm7.15,7.7v-7.7h-2.96v10.38h6.96v-2.68h-4Zm4.98.03v2.65h4.79c.98,0,2.67-.72,2.73-2.73v-1.03c0-1.71-1.41-2.73-2.73-2.73h-2.39v-1.23h4.73v-2.67h-4.54c-1.17,0-2.74.97-2.74,2.77v.92c0,1.8,1.55,2.73,2.74,2.73,3.3.01-.79,0,2.26,0v1.29h-4.85Z"/><path class="cls-1" d="m8.98,47.19h11.58s-2.21-10.1,5.12-14.19c1.6-.78,6.68-3.68,15.01,2.48.26-.22.51-.4.51-.4,0,0-7.62-7.61-16.11-6.76-4.27.38-9.51,4.27-12.59,9.4-3.08,5.13-3.52,9.47-3.52,9.47Zm24.13-18.04l.06-.98c-.13-.07-.5-.25-1.42-.51l-.06.97c.48.16.95.34,1.42.53Zm-1.39,3.11l-.06.92c.48.01.97.07,1.45.18l.06-.91c-.5-.1-.98-.16-1.45-.19Zm-5.42-4.57h.15l-.29-.89c-.45,0-.92.03-1.41.09l.28.86c.43-.04.85-.06,1.28-.06Zm.7,5.39l.34,1.01c.43-.21.85-.38,1.28-.51l-.32-.97c-.5.15-.92.31-1.29.47Zm-6.65-3.85l-.66-1.01c-.37.19-.75.4-1.14.63l.67,1.03c.38-.23.75-.45,1.13-.64Zm3,6.6l.7,1.06c.25-.37.54-.7.86-1.04l-.66-1c-.34.31-.64.64-.91.98Zm-2.13,4.72l1.19.94c.06-.57.16-1.14.31-1.71l-1.06-.84c-.19.54-.32,1.08-.44,1.61Zm-6.42-6.96l-1.04-.91c-.38.37-.75.73-1.08,1.1l1.13.97c.31-.4.64-.79,1-1.16Zm-4.43,6.55l-1.69-.62c-.28.63-.59,1.36-.73,1.76l1.69.62c.19-.5.5-1.22.73-1.76Zm10.63,4.13c.03.78.1,1.41.18,1.85l1.76.63c-.13-.57-.26-1.22-.35-1.91l-1.58-.57Z"/></g></svg>