<?xml version="1.0" encoding="UTF-8"?><svg id="Layer_2" xmlns="http://www.w3.org/2000/svg" xmlns:xlink="http://www.w3.org/1999/xlink" viewBox="0 0 74 74"><defs><style>.cls-1{fill:url(#linear-gradient);}.cls-2{fill:#fff;}.cls-3{fill:#9e1209;}.cls-4{fill:url(#radial-gradient-2);}.cls-5{fill:url(#linear-gradient-8);}.cls-6{fill:url(#linear-gradient-9);}.cls-7{fill:url(#linear-gradient-3);}.cls-8{fill:url(#linear-gradient-4);}.cls-9{fill:url(#linear-gradient-2);}.cls-10{fill:url(#linear-gradient-6);}.cls-11{fill:url(#linear-gradient-7);}.cls-12{fill:url(#linear-gradient-5);}.cls-13{fill:url(#radial-gradient);}.cls-14{fill:url(#linear-gradient-14);}.cls-15{fill:url(#linear-gradient-13);}.cls-16{fill:url(#linear-gradient-12);}.cls-17{fill:url(#linear-gradient-10);}.cls-18{fill:url(#linear-gradient-11);}</style><linearGradient id="linear-gradient" x1="-497.52" y1="1742" x2="-497.56" y2="1742.06" gradientTransform="translate(101015.06 353300.25) scale(202.93 -202.78)" gradientUnits="userSpaceOnUse"><stop offset="0" stop-color="#fb7655"/><stop offset="0" stop-color="#fb7655"/><stop offset=".41" stop-color="#e42b1e"/><stop offset=".99" stop-color="#900"/><stop offset="1" stop-color="#900"/></linearGradient><linearGradient id="linear-gradient-2" x1="-493.78" y1="1746.66" x2="-493.94" y2="1746.72" gradientTransform="translate(29833.1 195284.96) scale(60.31 -111.78)" gradientUnits="userSpaceOnUse"><stop offset="0" stop-color="#871101"/><stop offset="0" stop-color="#871101"/><stop offset=".99" stop-color="#911209"/><stop offset="1" stop-color="#911209"/></linearGradient><linearGradient id="linear-gradient-3" x1="-497.36" y1="1789.24" x2="-497.41" y2="1789.53" gradientTransform="translate(93708.42 39397.02) scale(188.32 -21.99)" xlink:href="#linear-gradient-2"/><linearGradient id="linear-gradient-4" x1="-492.17" y1="1748.41" x2="-492.15" y2="1748.31" gradientTransform="translate(32126.88 169812.68) scale(65.22 -97.1)" gradientUnits="userSpaceOnUse"><stop offset="0" stop-color="#fff"/><stop offset="0" stop-color="#fff"/><stop offset=".23" stop-color="#e57252"/><stop offset=".46" stop-color="#de3b20"/><stop offset=".99" stop-color="#a60003"/><stop offset="1" stop-color="#a60003"/></linearGradient><linearGradient id="linear-gradient-5" x1="-495.6" y1="1746.77" x2="-495.59" y2="1746.68" gradientTransform="translate(52232.96 186632.53) scale(105.32 -106.83)" gradientUnits="userSpaceOnUse"><stop offset="0" stop-color="#fff"/><stop offset="0" stop-color="#fff"/><stop offset=".23" stop-color="#e4714e"/><stop offset=".56" stop-color="#be1a0d"/><stop offset=".99" stop-color="#a80d00"/><stop offset="1" stop-color="#a80d00"/></linearGradient><linearGradient id="linear-gradient-6" x1="-495.83" y1="1751.82" x2="-495.82" y2="1751.71" gradientTransform="translate(46813.03 116377.1) scale(94.32 -66.42)" gradientUnits="userSpaceOnUse"><stop offset="0" stop-color="#fff"/><stop offset="0" stop-color="#fff"/><stop offset=".18" stop-color="#e46342"/><stop offset=".4" stop-color="#c82410"/><stop offset=".99" stop-color="#a80d00"/><stop offset="1" stop-color="#a80d00"/></linearGradient><linearGradient id="linear-gradient-7" x1="-494.37" y1="1776.27" x2="-494.27" y2="1776.42" gradientTransform="translate(35025.28 43186.26) scale(70.77 -24.3)" gradientUnits="userSpaceOnUse"><stop offset="0" stop-color="#fff"/><stop offset="0" stop-color="#fff"/><stop offset=".54" stop-color="#c81f11"/><stop offset=".99" stop-color="#bf0905"/><stop offset="1" stop-color="#bf0905"/></linearGradient><linearGradient id="linear-gradient-8" x1="-471.37" y1="1751.84" x2="-471.33" y2="1751.76" gradientTransform="translate(8588.28 127302.02) scale(18.18 -72.64)" gradientUnits="userSpaceOnUse"><stop offset="0" stop-color="#fff"/><stop offset="0" stop-color="#fff"/><stop offset=".31" stop-color="#de4024"/><stop offset=".99" stop-color="#bf190b"/><stop offset="1" stop-color="#bf190b"/></linearGradient><linearGradient id="linear-gradient-9" x1="-496.77" y1="1743.13" x2="-496.6" y2="1743.3" gradientTransform="translate(78586.75 275352.05) scale(158.16 -157.94)" gradientUnits="userSpaceOnUse"><stop offset="0" stop-color="#bd0012"/><stop offset="0" stop-color="#bd0012"/><stop offset=".07" stop-color="#fff"/><stop offset=".17" stop-color="#fff"/><stop offset=".27" stop-color="#c82f1c"/><stop offset=".33" stop-color="#820c01"/><stop offset=".46" stop-color="#a31601"/><stop offset=".72" stop-color="#b31301"/><stop offset=".99" stop-color="#e82609"/><stop offset="1" stop-color="#e82609"/></linearGradient><linearGradient id="linear-gradient-10" x1="-496.17" y1="1748.29" x2="-496.23" y2="1748.31" gradientTransform="translate(63087 170348.7) scale(127.07 -97.41)" gradientUnits="userSpaceOnUse"><stop offset="0" stop-color="#8c0c01"/><stop offset="0" stop-color="#8c0c01"/><stop offset=".54" stop-color="#990c00"/><stop offset=".99" stop-color="#a80d0e"/><stop offset="1" stop-color="#a80d0e"/></linearGradient><linearGradient id="linear-gradient-11" x1="-495.77" y1="1746.83" x2="-495.84" y2="1746.89" gradientTransform="translate(46658.74 184510.53) scale(94.01 -105.6)" gradientUnits="userSpaceOnUse"><stop offset="0" stop-color="#7e110b"/><stop offset="0" stop-color="#7e110b"/><stop offset=".99" stop-color="#9e0c00"/><stop offset="1" stop-color="#9e0c00"/></linearGradient><linearGradient id="linear-gradient-12" x1="-495.23" y1="1748.77" x2="-495.27" y2="1748.82" gradientTransform="translate(39524.34 143062.14) scale(79.7 -81.79)" gradientUnits="userSpaceOnUse"><stop offset="0" stop-color="#79130d"/><stop offset="0" stop-color="#79130d"/><stop offset=".99" stop-color="#9e120b"/><stop offset="1" stop-color="#9e120b"/></linearGradient><radialGradient id="radial-gradient" cx="-495.79" cy="1758.18" fx="-495.79" fy="1758.18" r=".1" gradientTransform="translate(46209.93 85578.1) scale(93.11 -48.66)" gradientUnits="userSpaceOnUse"><stop offset="0" stop-color="#a80d00"/><stop offset="0" stop-color="#a80d00"/><stop offset=".99" stop-color="#7e0e08"/><stop offset="1" stop-color="#7e0e08"/></radialGradient><radialGradient id="radial-gradient-2" cx="-495.36" cy="1751.49" fx="-495.36" fy="1751.49" r=".12" gradientTransform="translate(48297.28 132892.58) scale(97.43 -75.85)" gradientUnits="userSpaceOnUse"><stop offset="0" stop-color="#a30c00"/><stop offset="0" stop-color="#a30c00"/><stop offset=".99" stop-color="#800e08"/><stop offset="1" stop-color="#800e08"/></radialGradient><linearGradient id="linear-gradient-13" x1="-487.21" y1="1750.63" x2="-487.28" y2="1750.76" gradientTransform="translate(19579.13 142106.12) scale(40.14 -81.14)" gradientUnits="userSpaceOnUse"><stop offset="0" stop-color="#8b2114"/><stop offset="0" stop-color="#8b2114"/><stop offset=".43" stop-color="#9e100a"/><stop offset=".99" stop-color="#b3100c"/><stop offset="1" stop-color="#b3100c"/></linearGradient><linearGradient id="linear-gradient-14" x1="-495.22" y1="1766.34" x2="-495.13" y2="1766.25" gradientTransform="translate(38722.87 57646.07) scale(78.1 -32.62)" gradientUnits="userSpaceOnUse"><stop offset="0" stop-color="#b31000"/><stop offset="0" stop-color="#b31000"/><stop offset=".44" stop-color="#910f08"/><stop offset=".99" stop-color="#791c12"/><stop offset="1" stop-color="#791c12"/></linearGradient></defs><g id="Layer_1-2"><circle class="cls-2" cx="37" cy="37" r="36.5"/><path class="cls-2" d="m37,1c19.85,0,36,16.15,36,36s-16.15,36-36,36S1,56.85,1,37,17.15,1,37,1m0-1C16.57,0,0,16.57,0,37s16.57,37,37,37,37-16.57,37-37S57.43,0,37,0h0Z"/><path class="cls-1" d="m46.65,42.6l-20.04,11.9,25.95-1.76,2-26.17-7.91,16.03Z"/><path class="cls-9" d="m52.6,52.73l-2.23-15.4-6.08,8.02,8.31,7.37Z"/><path class="cls-7" d="m52.63,52.73l-16.34-1.28-9.6,3.03,25.94-1.75Z"/><path class="cls-8" d="m26.71,54.47l4.08-13.37-8.98,1.92,4.9,11.45Z"/><path class="cls-12" d="m44.29,45.4l-3.76-14.71-10.75,10.08,14.51,4.64Z"/><path class="cls-10" d="m53.7,30.89l-10.16-8.3-2.83,9.15,12.99-.85Z"/><path class="cls-11" d="m48.95,19.63l-5.98,3.3-3.77-3.35,9.75.04Z"/><path class="cls-5" d="m19.45,47.51l2.5-4.57-2.03-5.44-.48,10.01Z"/><path class="cls-2" d="m19.79,37.33l2.04,5.78,8.85-1.99,10.11-9.39,2.85-9.06-4.49-3.17-7.64,2.86c-2.41,2.24-7.08,6.67-7.24,6.75-.17.09-3.08,5.6-4.48,8.23h0Z"/><path class="cls-6" d="m26.95,26.95c5.21-5.17,11.94-8.23,14.52-5.62,2.58,2.6-.16,8.93-5.37,14.1-5.21,5.17-11.85,8.39-14.43,5.79-2.58-2.6.07-9.1,5.29-14.26h0Z"/><path class="cls-17" d="m26.71,54.47l4.05-13.42,13.45,4.32c-4.86,4.56-10.27,8.42-17.5,9.1h0Z"/><path class="cls-18" d="m40.81,31.7l3.45,13.68c4.06-4.27,7.71-8.86,9.5-14.55l-12.95.87h0Z"/><path class="cls-16" d="m53.72,30.9c1.38-4.17,1.7-10.15-4.82-11.27l-5.35,2.95,10.16,8.31h0Z"/><path class="cls-3" d="m19.45,47.45c.19,6.88,5.16,6.99,7.27,7.05l-4.89-11.41-2.39,4.37h0Z"/><path class="cls-13" d="m40.83,31.72c3.12,1.92,9.41,5.77,9.54,5.84.2.11,2.71-4.24,3.28-6.7l-12.83.86h0Z"/><path class="cls-4" d="m30.76,41.05l5.41,10.45c3.2-1.74,5.71-3.85,8.01-6.12l-13.42-4.33h0Z"/><path class="cls-15" d="m21.81,43.1l-.77,9.14c1.45,1.98,3.44,2.15,5.53,2-1.51-3.76-4.53-11.28-4.76-11.13h0Z"/><path class="cls-14" d="m43.53,22.62l10.76,1.51c-.57-2.43-2.34-4-5.34-4.49l-5.41,2.98h0Z"/></g></svg>