<?xml version="1.0" encoding="UTF-8"?><svg id="Layer_2" xmlns="http://www.w3.org/2000/svg" xmlns:xlink="http://www.w3.org/1999/xlink" viewBox="0 0 74 74"><defs><style>.cls-1{fill:url(#linear-gradient);}.cls-2{fill:#fff;}.cls-3{fill:#9e1209;}.cls-4{fill:#253243;}.cls-5{fill:url(#radial-gradient-2);}.cls-6{fill:url(#linear-gradient-8);}.cls-7{fill:url(#linear-gradient-9);}.cls-8{fill:url(#linear-gradient-3);}.cls-9{fill:url(#linear-gradient-4);}.cls-10{fill:url(#linear-gradient-2);}.cls-11{fill:url(#linear-gradient-6);}.cls-12{fill:url(#linear-gradient-7);}.cls-13{fill:url(#linear-gradient-5);}.cls-14{fill:url(#radial-gradient);}.cls-15{fill:url(#linear-gradient-14);}.cls-16{fill:url(#linear-gradient-13);}.cls-17{fill:url(#linear-gradient-12);}.cls-18{fill:url(#linear-gradient-10);}.cls-19{fill:url(#linear-gradient-11);}</style><linearGradient id="linear-gradient" x1="-603.15" y1="1742.04" x2="-603.18" y2="1742.11" gradientTransform="translate(122449.42 353309.64) scale(202.93 -202.78)" gradientUnits="userSpaceOnUse"><stop offset="0" stop-color="#fb7655"/><stop offset="0" stop-color="#fb7655"/><stop offset=".41" stop-color="#e42b1e"/><stop offset=".99" stop-color="#900"/><stop offset="1" stop-color="#900"/></linearGradient><linearGradient id="linear-gradient-2" x1="-598.17" y1="1746.71" x2="-598.33" y2="1746.76" gradientTransform="translate(36128.34 195290.15) scale(60.31 -111.78)" gradientUnits="userSpaceOnUse"><stop offset="0" stop-color="#871101"/><stop offset="0" stop-color="#871101"/><stop offset=".99" stop-color="#911209"/><stop offset="1" stop-color="#911209"/></linearGradient><linearGradient id="linear-gradient-3" x1="-602.94" y1="1789.29" x2="-602.99" y2="1789.58" gradientTransform="translate(113591.46 39398.08) scale(188.32 -21.99)" xlink:href="#linear-gradient-2"/><linearGradient id="linear-gradient-4" x1="-596.69" y1="1748.46" x2="-596.67" y2="1748.36" gradientTransform="translate(38943.73 169817.19) scale(65.22 -97.1)" gradientUnits="userSpaceOnUse"><stop offset="0" stop-color="#fff"/><stop offset="0" stop-color="#fff"/><stop offset=".23" stop-color="#e57252"/><stop offset=".46" stop-color="#de3b20"/><stop offset=".99" stop-color="#a60003"/><stop offset="1" stop-color="#a60003"/></linearGradient><linearGradient id="linear-gradient-5" x1="-600.74" y1="1746.82" x2="-600.73" y2="1746.73" gradientTransform="translate(63306.03 186637.5) scale(105.32 -106.83)" gradientUnits="userSpaceOnUse"><stop offset="0" stop-color="#fff"/><stop offset="0" stop-color="#fff"/><stop offset=".23" stop-color="#e4714e"/><stop offset=".56" stop-color="#be1a0d"/><stop offset=".99" stop-color="#a80d00"/><stop offset="1" stop-color="#a80d00"/></linearGradient><linearGradient id="linear-gradient-6" x1="-600.85" y1="1751.86" x2="-600.83" y2="1751.76" gradientTransform="translate(56718.61 116380.2) scale(94.32 -66.42)" gradientUnits="userSpaceOnUse"><stop offset="0" stop-color="#fff"/><stop offset="0" stop-color="#fff"/><stop offset=".18" stop-color="#e46342"/><stop offset=".4" stop-color="#c82410"/><stop offset=".99" stop-color="#a80d00"/><stop offset="1" stop-color="#a80d00"/></linearGradient><linearGradient id="linear-gradient-7" x1="-599.01" y1="1776.32" x2="-598.91" y2="1776.47" gradientTransform="translate(42430.66 43187.42) scale(70.77 -24.3)" gradientUnits="userSpaceOnUse"><stop offset="0" stop-color="#fff"/><stop offset="0" stop-color="#fff"/><stop offset=".54" stop-color="#c81f11"/><stop offset=".99" stop-color="#bf0905"/><stop offset="1" stop-color="#bf0905"/></linearGradient><linearGradient id="linear-gradient-8" x1="-571.67" y1="1751.89" x2="-571.64" y2="1751.81" gradientTransform="translate(10411.57 127305.41) scale(18.18 -72.64)" gradientUnits="userSpaceOnUse"><stop offset="0" stop-color="#fff"/><stop offset="0" stop-color="#fff"/><stop offset=".31" stop-color="#de4024"/><stop offset=".99" stop-color="#bf190b"/><stop offset="1" stop-color="#bf190b"/></linearGradient><linearGradient id="linear-gradient-9" x1="-602.25" y1="1743.17" x2="-602.07" y2="1743.35" gradientTransform="translate(95268.76 275359.37) scale(158.16 -157.94)" gradientUnits="userSpaceOnUse"><stop offset="0" stop-color="#bd0012"/><stop offset="0" stop-color="#bd0012"/><stop offset=".07" stop-color="#fff"/><stop offset=".17" stop-color="#fff"/><stop offset=".27" stop-color="#c82f1c"/><stop offset=".33" stop-color="#820c01"/><stop offset=".46" stop-color="#a31601"/><stop offset=".72" stop-color="#b31301"/><stop offset=".99" stop-color="#e82609"/><stop offset="1" stop-color="#e82609"/></linearGradient><linearGradient id="linear-gradient-10" x1="-601.48" y1="1748.34" x2="-601.54" y2="1748.36" gradientTransform="translate(76469.1 170353.23) scale(127.07 -97.41)" gradientUnits="userSpaceOnUse"><stop offset="0" stop-color="#8c0c01"/><stop offset="0" stop-color="#8c0c01"/><stop offset=".54" stop-color="#990c00"/><stop offset=".99" stop-color="#a80d0e"/><stop offset="1" stop-color="#a80d0e"/></linearGradient><linearGradient id="linear-gradient-11" x1="-600.78" y1="1746.87" x2="-600.86" y2="1746.94" gradientTransform="translate(56531.42 184515.43) scale(94.01 -105.6)" gradientUnits="userSpaceOnUse"><stop offset="0" stop-color="#7e110b"/><stop offset="0" stop-color="#7e110b"/><stop offset=".99" stop-color="#9e0c00"/><stop offset="1" stop-color="#9e0c00"/></linearGradient><linearGradient id="linear-gradient-12" x1="-600.04" y1="1748.82" x2="-600.09" y2="1748.86" gradientTransform="translate(47878.15 143065.95) scale(79.7 -81.79)" gradientUnits="userSpaceOnUse"><stop offset="0" stop-color="#79130d"/><stop offset="0" stop-color="#79130d"/><stop offset=".99" stop-color="#9e120b"/><stop offset="1" stop-color="#9e120b"/></linearGradient><radialGradient id="radial-gradient" cx="-600.8" cy="1758.22" fx="-600.8" fy="1758.22" r=".1" gradientTransform="translate(55987.3 85580.39) scale(93.11 -48.66)" gradientUnits="userSpaceOnUse"><stop offset="0" stop-color="#a80d00"/><stop offset="0" stop-color="#a80d00"/><stop offset=".99" stop-color="#7e0e08"/><stop offset="1" stop-color="#7e0e08"/></radialGradient><radialGradient id="radial-gradient-2" cx="-600.41" cy="1751.54" fx="-600.41" fy="1751.54" r=".12" gradientTransform="translate(58533.31 132896.12) scale(97.43 -75.85)" gradientUnits="userSpaceOnUse"><stop offset="0" stop-color="#a30c00"/><stop offset="0" stop-color="#a30c00"/><stop offset=".99" stop-color="#800e08"/><stop offset="1" stop-color="#800e08"/></radialGradient><linearGradient id="linear-gradient-13" x1="-590.71" y1="1750.68" x2="-590.78" y2="1750.8" gradientTransform="translate(23733.29 142109.9) scale(40.14 -81.14)" gradientUnits="userSpaceOnUse"><stop offset="0" stop-color="#8b2114"/><stop offset="0" stop-color="#8b2114"/><stop offset=".43" stop-color="#9e100a"/><stop offset=".99" stop-color="#b3100c"/><stop offset="1" stop-color="#b3100c"/></linearGradient><linearGradient id="linear-gradient-14" x1="-600" y1="1766.38" x2="-599.92" y2="1766.29" gradientTransform="translate(46906.57 57647.62) scale(78.1 -32.62)" gradientUnits="userSpaceOnUse"><stop offset="0" stop-color="#b31000"/><stop offset="0" stop-color="#b31000"/><stop offset=".44" stop-color="#910f08"/><stop offset=".99" stop-color="#791c12"/><stop offset="1" stop-color="#791c12"/></linearGradient></defs><g id="Layer_1-2"><circle class="cls-4" cx="37" cy="37" r="37"/><path class="cls-1" d="m46.65,42.6l-20.04,11.9,25.95-1.76,2-26.17-7.91,16.03Z"/><path class="cls-10" d="m52.6,52.73l-2.23-15.4-6.08,8.02,8.31,7.37Z"/><path class="cls-8" d="m52.63,52.73l-16.34-1.28-9.6,3.03,25.94-1.75Z"/><path class="cls-9" d="m26.71,54.47l4.08-13.37-8.98,1.92,4.9,11.45Z"/><path class="cls-13" d="m44.29,45.4l-3.76-14.71-10.75,10.08,14.51,4.64Z"/><path class="cls-11" d="m53.7,30.89l-10.16-8.3-2.83,9.15,12.99-.85Z"/><path class="cls-12" d="m48.95,19.63l-5.98,3.3-3.77-3.35,9.75.04Z"/><path class="cls-6" d="m19.45,47.51l2.5-4.57-2.03-5.44-.48,10.01Z"/><path class="cls-2" d="m19.79,37.33l2.04,5.78,8.85-1.99,10.11-9.39,2.85-9.06-4.49-3.17-7.64,2.86c-2.41,2.24-7.08,6.67-7.24,6.75-.17.09-3.08,5.6-4.48,8.23h0Z"/><path class="cls-7" d="m26.95,26.95c5.21-5.17,11.94-8.23,14.52-5.62,2.58,2.6-.16,8.93-5.37,14.1-5.21,5.17-11.85,8.39-14.43,5.79-2.58-2.6.07-9.1,5.29-14.26h0Z"/><path class="cls-18" d="m26.71,54.47l4.05-13.42,13.45,4.32c-4.86,4.56-10.27,8.42-17.5,9.1h0Z"/><path class="cls-19" d="m40.81,31.7l3.45,13.68c4.06-4.27,7.71-8.86,9.5-14.55l-12.95.87h0Z"/><path class="cls-17" d="m53.72,30.9c1.38-4.17,1.7-10.15-4.82-11.27l-5.35,2.95,10.16,8.31h0Z"/><path class="cls-3" d="m19.45,47.45c.19,6.88,5.16,6.99,7.27,7.05l-4.89-11.41-2.39,4.37h0Z"/><path class="cls-14" d="m40.83,31.72c3.12,1.92,9.41,5.77,9.54,5.84.2.11,2.71-4.24,3.28-6.7l-12.83.86h0Z"/><path class="cls-5" d="m30.76,41.05l5.41,10.45c3.2-1.74,5.71-3.85,8.01-6.12l-13.42-4.33h0Z"/><path class="cls-16" d="m21.81,43.1l-.77,9.14c1.45,1.98,3.44,2.15,5.53,2-1.51-3.76-4.53-11.28-4.76-11.13h0Z"/><path class="cls-15" d="m43.53,22.62l10.76,1.51c-.57-2.43-2.34-4-5.34-4.49l-5.41,2.98h0Z"/></g></svg>