<?xml version="1.0" encoding="UTF-8"?><svg id="Layer_2" xmlns="http://www.w3.org/2000/svg" viewBox="0 0 74 74"><defs><style>.cls-1{fill:#fff;}.cls-2{fill:#10acc2;}</style></defs><g id="Layer_1-2"><circle class="cls-1" cx="37" cy="37" r="36.5"/><path class="cls-1" d="m37,1c19.85,0,36,16.15,36,36s-16.15,36-36,36S1,56.85,1,37,17.15,1,37,1m0-1C16.57,0,0,16.57,0,37s16.57,37,37,37,37-16.57,37-37S57.43,0,37,0h0Z"/><g id="Layer_1-2"><path class="cls-2" d="m21.14,56.49s-14.9-23.72,15.75-38.98v38.98h-15.75Z"/><path class="cls-2" d="m41.64,56.49v-24.16s4.89,7.98,14.84,24.16c0,0-14.84,0-14.84,0Z"/></g></g></svg>