<?xml version="1.0" encoding="UTF-8"?><svg id="Layer_2" xmlns="http://www.w3.org/2000/svg" viewBox="0 0 74 74"><defs><style>.cls-1{fill:#68bd45;}.cls-2{fill:#253243;}</style></defs><g id="Layer_1-2"><circle class="cls-2" cx="37" cy="37" r="37"/><path class="cls-1" d="m53.59,18.9c-.57,1.36-1.29,2.65-2.16,3.84-7.91-7.94-20.77-7.97-28.71-.06-7.94,7.91-7.97,20.77-.06,28.71.14.14.28.28.42.41l.75.66c8.57,7.22,21.37,6.13,28.59-2.44,2.76-3.28,4.42-7.35,4.72-11.63.55-5.17-.96-11.71-3.55-19.48h0Zm-27.62,33.01c-.6.75-1.7.86-2.44.26-.75-.6-.86-1.7-.26-2.44.6-.75,1.7-.86,2.44-.26,0,0,0,0,0,0,.74.6.86,1.7.26,2.44Zm27.54-6.08c-5.01,6.67-15.71,4.42-22.56,4.75,0,0-1.22.07-2.44.27,0,0,.46-.2,1.05-.42,4.82-1.68,7.09-2,10.02-3.5,5.51-2.8,10.96-8.93,12.09-15.31-2.1,6.13-8.46,11.41-14.25,13.55-3.97,1.46-11.14,2.89-11.14,2.89l-.29-.15c-4.88-2.37-5.03-12.94,3.84-16.35,3.89-1.5,7.6-.67,11.8-1.68,4.48-1.06,9.67-4.42,11.77-8.8,2.36,7.01,5.2,17.98.11,24.76h0Z"/></g></svg>