<?xml version="1.0" encoding="UTF-8"?><svg id="Layer_2" xmlns="http://www.w3.org/2000/svg" viewBox="0 0 74 74"><defs><style>.cls-1{isolation:isolate;opacity:.41;}.cls-1,.cls-2{fill:#8e75ff;fill-rule:evenodd;}.cls-3{fill:#253243;}</style></defs><g id="Layer_1-2"><circle class="cls-3" cx="37" cy="37" r="37"/><path class="cls-2" d="m43.62,44.22v-13.01c0-.46-.38-.84-.84-.84h-13v-13.43h26.41c.46,0,.84.38.84.84h0v26.44h-13.41Z"/><path class="cls-1" d="m29.79,16.94v13.43h-12.4c-.23,0-.42-.19-.42-.42,0-.11.04-.22.12-.3l12.7-12.71Zm13.83,39.69v-12.42h13.41l-12.7,12.71c-.16.16-.43.16-.59,0-.08-.08-.12-.19-.12-.3h0Zm-13.83-26.26h13.41c.23,0,.42.19.42.42v13.43h-13c-.46,0-.84-.38-.84-.84v-13.01Z"/></g></svg>