<?xml version="1.0" encoding="UTF-8"?><svg id="Layer_2" xmlns="http://www.w3.org/2000/svg" viewBox="0 0 74 74"><defs><style>.cls-1{fill:#fff;}</style></defs><g id="Layer_1-2"><circle class="cls-1" cx="37" cy="37" r="36.5"/><path class="cls-1" d="m37,1c19.85,0,36,16.15,36,36s-16.15,36-36,36S1,56.85,1,37,17.15,1,37,1m0-1C16.57,0,0,16.57,0,37s16.57,37,37,37,37-16.57,37-37S57.43,0,37,0h0Z"/><path d="m58.03,37c0,11.62-9.42,21.03-21.03,21.03s-21.03-9.42-21.03-21.03,9.42-21.03,21.03-21.03,21.03,9.42,21.03,21.03Z"/><path class="cls-1" d="m46.2,23.75c-2.14.07-4,1.25-5.39,2.88-1.54,1.79-2.56,3.9-3.3,6.07-1.32-1.08-2.33-2.48-4.45-3.09-1.63-.47-3.35-.28-4.93.9-.75.56-1.26,1.4-1.51,2.2-.63,2.06.67,3.9,1.26,4.56l1.29,1.38c.27.27.91.98.59,1.99-.34,1.11-1.67,1.82-3.03,1.4-.61-.19-1.49-.64-1.29-1.28.08-.26.27-.46.37-.68.09-.2.14-.34.16-.43.25-.81-.09-1.87-.96-2.14-.81-.25-1.65-.05-1.97,1-.37,1.19.2,3.35,3.26,4.29,3.58,1.1,6.6-.85,7.03-3.38.27-1.59-.45-2.77-1.76-4.29l-1.07-1.19c-.65-.65-.87-1.75-.2-2.6.57-.72,1.37-1.02,2.7-.66,1.93.52,2.79,1.86,4.23,2.94-.59,1.95-.98,3.9-1.33,5.65l-.22,1.31c-1.03,5.38-1.81,8.34-3.85,10.04-.41.29-1,.73-1.88.76-.46.01-.61-.31-.62-.44-.01-.32.26-.47.45-.62.27-.15.68-.39.66-1.18-.03-.93-.8-1.74-1.92-1.7-.84.03-2.11.81-2.06,2.25.05,1.49,1.44,2.6,3.53,2.53,1.12-.04,3.61-.49,6.07-3.41,2.86-3.35,3.66-7.19,4.26-10l.67-3.71c.37.04.77.07,1.21.09,3.56.08,5.35-1.77,5.37-3.11.02-.81-.53-1.61-1.3-1.59-.55.02-1.25.38-1.41,1.15-.16.75,1.13,1.42.12,2.08-.72.47-2.01.79-3.83.53l.33-1.83c.67-3.46,1.51-7.73,4.66-7.83.23-.01,1.07,0,1.09.57,0,.18-.04.23-.26.66-.22.33-.31.62-.29.94.03.88.7,1.47,1.68,1.43,1.3-.04,1.68-1.31,1.65-1.96-.05-1.53-1.67-2.5-3.8-2.43Z"/></g></svg>